<svg version="1.0" xmlns="http://www.w3.org/2000/svg" xmlns:xlink="http://www.w3.org/1999/xlink" x="0px" y="0px" width="60px"
	 height="60px" viewBox="0 0 60 60" style="enable-background:new 0 0 60 60;" xml:space="preserve">
	<g>
		<path style="fill:#ffffff;" d="M30,60C13.5,60,0,46.5,0,30C0,13.5,13.5,0,30,0s30,13.5,30,30C60,46.5,46.5,60,30,60z M30,4.3
			C15.8,4.3,4.3,15.8,4.3,30S15.8,55.7,30,55.7S55.7,44.2,55.7,30S44.2,4.3,30,4.3z"/>
		<polygon style="fill:#ffffff;" points="43,13.4 30.2,26.2 17.4,13.4 13.5,17.3 26.3,30.1 13.5,42.9 17.4,46.8 30.2,34 43,46.8 
			46.9,42.9 34.1,30.1 46.9,17.3 		"/>
	</g>
</svg>
