<svg version="1.0" xmlns="http://www.w3.org/2000/svg" xmlns:xlink="http://www.w3.org/1999/xlink" x="0px" y="0px"
	 viewBox="0 0 44 44" style="enable-background:new 0 0 44 44;" xml:space="preserve">
	<g>
		<g>
			<path style="fill:#FFFFFF;" d="M22,43C10.4,43,1,33.6,1,22C1,10.4,10.4,1,22,1s21,9.4,21,21C43,33.6,33.6,43,22,43z M22,4
				C12.1,4,4,12.1,4,22s8.1,18,18,18s18-8.1,18-18S31.9,4,22,4z"/>
			<g>
				<path style="fill:#FFFFFF;" d="M28.8,23.5c0,0,0-5.6,0-6.8l-6.8,6.8l-1.5-1.5l6.7-6.7c-1.3,0-6.8,0-6.8,0l0-2.1l10.4,0l0,10.4
					L28.8,23.5z"/>
				<path style="fill:#FFFFFF;" d="M15.1,20.6c0,0,0,5.6,0,6.8l6.8-6.8l1.5,1.5l-6.7,6.7c1.3,0,6.8,0,6.8,0l0,2.1L13,31l0-10.4
					L15.1,20.6z"/>
			</g>
		</g>
	</g>
</svg>
