<svg version="1.0" xmlns="http://www.w3.org/2000/svg" xmlns:xlink="http://www.w3.org/1999/xlink" x="0px" y="0px"
	 viewBox="0 0 44 44" style="enable-background:new 0 0 44 44;" xml:space="preserve">
<g>
	<g>
		<path style="fill:#003A70;" d="M22,43C10.4,43,1,33.6,1,22C1,10.4,10.4,1,22,1s21,9.4,21,21C43,33.6,33.6,43,22,43z M22,4
			C12.1,4,4,12.1,4,22s8.1,18,18,18s18-8.1,18-18S31.9,4,22,4z"/>
		<path style="fill:#003A70;" d="M20.5,29.7c0,0,4.6-4.6,6-6H11v-3.4h15.5c-1.5-1.5-6-6-6-6l2.4-2.4L33,22L22.9,32.1L20.5,29.7z"/>
	</g>
</g>
</svg>
