<svg version="1.0" xmlns="http://www.w3.org/2000/svg" xmlns:xlink="http://www.w3.org/1999/xlink" x="0px" y="0px"
	 viewBox="0 0 44 44" style="enable-background:new 0 0 44 44;" xml:space="preserve">
<g>
	<g>
		<path style="fill:#003A70;" d="M22,1c11.6,0,21,9.4,21,21c0,11.6-9.4,21-21,21S1,33.6,1,22C1,10.4,10.4,1,22,1z M22,40
			c9.9,0,18-8.1,18-18S31.9,4,22,4C12.1,4,4,12.1,4,22S12.1,40,22,40z"/>
		<path style="fill:#003A70;" d="M23.5,14.3c0,0-4.6,4.6-6,6H33v3.4H17.5c1.5,1.5,6,6,6,6l-2.4,2.4L11,22l10.1-10.1L23.5,14.3z"/>
	</g>
</g>
</svg>
